<svg width="35" height="35" viewBox="0 0 35 35" fill="none" xmlns="http://www.w3.org/2000/svg">
<path d="M7.59615 18.9584H23.8857L16.7691 26.0751C16.2003 26.6439 16.2003 27.5772 16.7691 28.1459C17.3378 28.7147 18.2566 28.7147 18.8253 28.1459L28.4357 18.5355C29.0045 17.9668 29.0045 17.048 28.4357 16.4793L18.8399 6.85428C18.5674 6.5812 18.1975 6.42773 17.8118 6.42773C17.426 6.42773 17.0561 6.5812 16.7837 6.85428C16.2149 7.42303 16.2149 8.34178 16.7837 8.91053L23.8857 16.0418H7.59615C6.79407 16.0418 6.13782 16.698 6.13782 17.5001C6.13782 18.3022 6.79407 18.9584 7.59615 18.9584Z" fill="black" fill-opacity="0.2"/>
</svg>
