<svg width="27" height="26" viewBox="0 0 27 26" fill="none" xmlns="http://www.w3.org/2000/svg">
<path d="M25.2673 11.2952H5.91288L14.3685 2.93408C15.0443 2.26588 15.0443 1.16933 14.3685 0.501129C14.0448 0.1803 13.6053 0 13.147 0C12.6886 0 12.2491 0.1803 11.9254 0.501129L0.506819 11.7921C-0.16894 12.4603 -0.16894 13.5397 0.506819 14.2079L11.9254 25.4988C12.6012 26.167 13.6928 26.167 14.3685 25.4988C15.0443 24.8306 15.0443 23.7512 14.3685 23.083L5.91288 14.7219H25.2673C26.2203 14.7219 27 13.9509 27 13.0086C27 12.0662 26.2203 11.2952 25.2673 11.2952Z" fill="#B8CAB2"/>
</svg>
