<svg width="27" height="26" viewBox="0 0 27 26" fill="none" xmlns="http://www.w3.org/2000/svg">
<path d="M1.73271 14.7122H21.0871L12.6315 23.0678C11.9557 23.7356 11.9557 24.8314 12.6315 25.4992C13.3072 26.1669 14.3988 26.1669 15.0746 25.4992L26.4932 14.2157C27.1689 13.5479 27.1689 12.4692 26.4932 11.8014L15.0919 0.500799C14.7682 0.180182 14.3287 0 13.8704 0C13.412 0 12.9725 0.180182 12.6488 0.500799C11.973 1.16856 11.973 2.24726 12.6488 2.91503L21.0871 11.2878H1.73271C0.779721 11.2878 0 12.0583 0 13C0 13.9417 0.779721 14.7122 1.73271 14.7122Z" fill="#B2CAC7"/>
</svg>
