<svg width="114" height="29" viewBox="0 0 114 29" fill="none" xmlns="http://www.w3.org/2000/svg">
<path d="M1.85352 1.99414C2.47852 2.01367 3.02539 2.02344 3.49414 2.02344C3.96289 2.00391 4.34375 1.99414 4.63672 1.99414H5.48633C5.70117 1.97461 5.96484 1.96484 6.27734 1.96484C6.55078 1.96484 6.88281 1.96484 7.27344 1.96484C7.66406 1.96484 8.11328 1.97461 8.62109 1.99414C8.77734 2.54102 8.95312 3.07812 9.14844 3.60547C9.36328 4.11328 9.54883 4.57227 9.70508 4.98242C9.90039 5.4707 10.0957 5.92969 10.291 6.35938C10.4863 6.78906 10.7207 7.30664 10.9941 7.91211C11.2285 8.41992 11.5117 9.04492 11.8438 9.78711C12.1758 10.5098 12.5664 11.3398 13.0156 12.2773C13.2305 11.6719 13.4258 11.1152 13.6016 10.6074C13.7969 10.0996 13.9629 9.66016 14.0996 9.28906C14.2559 8.85938 14.3828 8.46875 14.4805 8.11719C14.5781 7.76562 14.6855 7.33594 14.8027 6.82812C14.9004 6.39844 15.0078 5.88086 15.125 5.27539C15.2617 4.66992 15.3984 3.9668 15.5352 3.16602C16.1016 3.16602 16.6094 3.16602 17.0586 3.16602C17.5078 3.16602 17.8984 3.15625 18.2305 3.13672C18.6016 3.13672 18.9336 3.12695 19.2266 3.10742C19.5391 3.10742 19.959 3.08789 20.4863 3.04883C20.9355 3.00977 21.5312 2.98047 22.2734 2.96094C23.0352 2.92187 23.9727 2.87305 25.0859 2.81445C24.6758 3.10742 24.3438 3.40039 24.0898 3.69336C23.8555 3.9668 23.6699 4.21094 23.5332 4.42578C23.377 4.67969 23.2793 4.92383 23.2402 5.1582C23.2012 5.35352 23.1621 5.80273 23.123 6.50586C23.1035 7.20898 23.0742 8.04883 23.0352 9.02539C23.0156 9.98242 22.9961 11.0078 22.9766 12.1016C22.9766 13.1953 22.9863 14.2305 23.0059 15.207C23.0254 16.1836 23.0547 17.0332 23.0938 17.7559C23.1523 18.459 23.2305 18.9082 23.3281 19.1035C23.4648 19.3379 23.6504 19.6113 23.8848 19.9238C24.0996 20.1973 24.373 20.5098 24.7051 20.8613C25.0566 21.2129 25.5156 21.6035 26.082 22.0332C25.1836 22.0723 24.4316 22.1016 23.8262 22.1211C23.2402 22.1406 22.752 22.1602 22.3613 22.1797C21.9121 22.1992 21.5508 22.209 21.2773 22.209C20.9844 22.209 20.584 22.2188 20.0762 22.2383C19.627 22.2578 19.0312 22.2871 18.2891 22.3262C17.5469 22.3457 16.5898 22.3848 15.418 22.4434C15.6914 22.1309 15.9453 21.8184 16.1797 21.5059C16.4141 21.1934 16.6094 20.9102 16.7656 20.6562C16.9609 20.3633 17.127 20.0801 17.2637 19.8066C17.4004 19.4355 17.5078 18.7617 17.5859 17.7852C17.6641 16.9453 17.7227 15.7441 17.7617 14.1816C17.8008 12.5996 17.8008 10.4805 17.7617 7.82422C17.3906 8.42969 17.0586 9.03516 16.7656 9.64062C16.4922 10.2266 16.248 10.7637 16.0332 11.252C15.7988 11.8184 15.584 12.3652 15.3887 12.8926C15.1934 13.4395 14.9883 14.0449 14.7734 14.709C14.5781 15.2754 14.3438 15.9492 14.0703 16.7305C13.8164 17.5117 13.5234 18.3711 13.1914 19.3086L12.0781 19.3672C11.9219 18.5859 11.7656 17.8828 11.6094 17.2578C11.4531 16.6133 11.2969 16.0664 11.1406 15.6172C10.9648 15.0898 10.7891 14.6211 10.6133 14.2109C10.418 13.8008 10.2031 13.3418 9.96875 12.834C9.75391 12.4043 9.49023 11.8965 9.17773 11.3105C8.88477 10.7246 8.54297 10.0703 8.15234 9.34766C7.95703 11.3398 7.83984 12.9609 7.80078 14.2109C7.76172 15.4414 7.76172 16.3984 7.80078 17.082C7.83984 17.9023 7.89844 18.498 7.97656 18.8691C8.09375 19.2012 8.2793 19.5723 8.5332 19.9824C8.74805 20.334 9.04102 20.7539 9.41211 21.2422C9.80273 21.7109 10.3008 22.2383 10.9062 22.8242C10.4766 22.8242 10.0273 22.8242 9.55859 22.8242C9.08984 22.8242 8.66016 22.834 8.26953 22.8535C7.80078 22.873 7.3418 22.8828 6.89258 22.8828C6.42383 22.9023 5.87695 22.9316 5.25195 22.9707C4.70508 23.0098 4.05078 23.0488 3.28906 23.0879C2.52734 23.127 1.64844 23.1953 0.652344 23.293C1.08203 23.0195 1.43359 22.7559 1.70703 22.502C1.98047 22.2285 2.19531 21.9844 2.35156 21.7695C2.54688 21.5156 2.69336 21.2617 2.79102 21.0078C2.84961 20.8516 2.89844 20.5098 2.9375 19.9824C2.99609 19.4551 3.04492 18.8105 3.08398 18.0488C3.14258 17.2871 3.18164 16.4375 3.20117 15.5C3.24023 14.5625 3.26953 13.6152 3.28906 12.6582C3.32812 11.6816 3.35742 10.7344 3.37695 9.81641C3.39648 8.87891 3.40625 8.03906 3.40625 7.29688C3.42578 6.53516 3.43555 5.90039 3.43555 5.39258C3.43555 4.88477 3.43555 4.5625 3.43555 4.42578C3.37695 4.13281 3.28906 3.83984 3.17188 3.54688C3.07422 3.29297 2.91797 3.0293 2.70312 2.75586C2.48828 2.48242 2.20508 2.22852 1.85352 1.99414ZM32.791 18.2832C33.3379 18.2832 33.8457 18.2246 34.3145 18.1074C34.7051 18.0098 35.0762 17.8535 35.4277 17.6387C35.7988 17.4043 36.043 17.0625 36.1602 16.6133C36.5508 16.6914 36.8828 16.7598 37.1562 16.8184C37.4297 16.8574 37.6641 16.8965 37.8594 16.9355C38.0742 16.9941 38.2598 17.0332 38.416 17.0527C38.5723 17.0918 38.7578 17.1309 38.9727 17.1699C39.168 17.209 39.4023 17.2578 39.6758 17.3164C39.9688 17.3555 40.3105 17.4141 40.7012 17.4922C40.4082 17.4531 40.1055 17.4824 39.793 17.5801C39.5 17.6777 39.2168 17.7852 38.9434 17.9023C38.6309 18.0391 38.3379 18.2051 38.0645 18.4004C37.8887 18.5176 37.6836 18.6934 37.4492 18.9277C37.2344 19.1621 36.9219 19.3867 36.5117 19.6016C36.1016 19.8164 35.5547 20.002 34.8711 20.1582C34.207 20.2949 33.3477 20.3438 32.293 20.3047C31.0234 20.2656 29.959 20.041 29.0996 19.6309C28.2402 19.2012 27.5469 18.6836 27.0195 18.0781C26.4922 17.4531 26.1113 16.7793 25.877 16.0566C25.6426 15.334 25.5156 14.6602 25.4961 14.0352C25.4766 13.4102 25.6621 12.7559 26.0527 12.0723C26.4434 11.3887 26.9902 10.7637 27.6934 10.1973C28.416 9.63086 29.2852 9.17188 30.3008 8.82031C31.3164 8.44922 32.4297 8.26367 33.6406 8.26367C34.3438 8.26367 34.9883 8.35156 35.5742 8.52734C36.1797 8.68359 36.7266 8.89844 37.2148 9.17188C37.7227 9.44531 38.1621 9.75781 38.5332 10.1094C38.9043 10.4414 39.2168 10.7832 39.4707 11.1348C39.7246 11.5059 39.9395 11.8965 40.1152 12.3066C40.2715 12.6582 40.3984 13.0586 40.4961 13.5078C40.5938 13.957 40.623 14.416 40.584 14.8848C39.0996 14.9238 37.8984 14.9531 36.9805 14.9727C36.082 14.9922 35.3789 15.002 34.8711 15.002H33.5527H32.5566C32.2051 15.002 31.7461 15.0117 31.1797 15.0312C30.6133 15.0508 29.9199 15.0801 29.0996 15.1191C29.1973 15.9004 29.4414 16.5059 29.832 16.9355C30.2422 17.3457 30.6719 17.6582 31.1211 17.873C31.6289 18.1074 32.1855 18.2441 32.791 18.2832ZM30.1543 13.0098C30.7793 13.0488 31.2969 13.0781 31.707 13.0977C32.1367 13.1172 32.4883 13.1367 32.7617 13.1562C33.0547 13.1758 33.2891 13.1855 33.4648 13.1855H34.1973C34.6855 13.1855 35.5938 13.1562 36.9219 13.0977C36.8633 12.2383 36.6777 11.584 36.3652 11.1348C36.0723 10.6855 35.7598 10.3535 35.4277 10.1387C35.0371 9.9043 34.6074 9.76758 34.1387 9.72852C32.8691 9.74805 31.9219 10.0117 31.2969 10.5195C30.6914 11.0273 30.3105 11.8574 30.1543 13.0098ZM56.1406 0.558594C56.5117 0.578125 56.9121 0.587891 57.3418 0.587891C57.7129 0.587891 58.1328 0.597656 58.6016 0.617188C59.0898 0.617188 59.5977 0.597656 60.125 0.558594C59.6562 0.773438 59.2461 1.08594 58.8945 1.49609C58.543 1.90625 58.2598 2.31641 58.0449 2.72656C57.7715 3.21484 57.5469 3.72266 57.3711 4.25C57.2734 4.5625 57.1953 5.11914 57.1367 5.91992C57.0781 6.70117 57.0293 7.61914 56.9902 8.67383C56.9707 9.72852 56.9609 10.8418 56.9609 12.0137C56.9609 13.1855 56.9707 14.3086 56.9902 15.3828C57.0098 16.4375 57.0391 17.375 57.0781 18.1953C57.1172 19.0156 57.166 19.5918 57.2246 19.9238C57.3027 20.3145 57.4004 20.6855 57.5176 21.0371C57.6152 21.3496 57.7422 21.6719 57.8984 22.0039C58.0547 22.3164 58.25 22.5703 58.4844 22.7656L55.4961 24.1133C55.3398 23.8984 55.2129 23.6738 55.1152 23.4395C55.0176 23.2246 54.9395 23.0293 54.8809 22.8535C54.8027 22.6387 54.7539 22.4434 54.7344 22.2676C54.6953 22.0332 54.6562 21.7793 54.6172 21.5059C54.5781 21.2129 54.5293 20.9395 54.4707 20.6855C54.4316 20.4121 54.4023 20.1875 54.3828 20.0117C54.3633 19.8359 54.3633 19.7285 54.3828 19.6895C54.4023 19.6504 54.2852 19.8262 54.0312 20.2168C53.7773 20.5879 53.3965 21.0273 52.8887 21.5352C52.4004 22.0234 51.7949 22.502 51.0723 22.9707C50.3496 23.4199 49.5391 23.7031 48.6406 23.8203C47.7227 23.9375 46.873 23.7617 46.0918 23.293C45.3301 22.8242 44.6758 22.1699 44.1289 21.3301C43.582 20.4707 43.1621 19.4844 42.8691 18.3711C42.5957 17.2383 42.4883 16.0859 42.5469 14.9141C42.5859 14.1328 42.7617 13.4395 43.0742 12.834C43.3867 12.209 43.7773 11.6719 44.2461 11.2227C44.7344 10.7539 45.2617 10.3633 45.8281 10.0508C46.4141 9.71875 46.9805 9.44531 47.5273 9.23047C48.0938 9.01562 48.6211 8.85938 49.1094 8.76172C49.5977 8.66406 49.9883 8.5957 50.2812 8.55664C50.6328 8.53711 51.0332 8.5957 51.4824 8.73242C51.873 8.84961 52.3223 9.04492 52.8301 9.31836C53.3574 9.5918 53.9434 10.002 54.5879 10.5488C54.4707 8.5957 54.3633 7.0332 54.2656 5.86133C54.168 4.66992 54.0703 3.76172 53.9727 3.13672C53.875 2.39453 53.7871 1.88672 53.709 1.61328C53.6113 1.41797 53.4844 1.22266 53.3281 1.02734C53.1914 0.871094 53.0156 0.714844 52.8008 0.558594C52.6055 0.382812 52.3711 0.246094 52.0977 0.148438C52.6055 0.246094 53.0938 0.314453 53.5625 0.353516C54.0312 0.392578 54.4609 0.431641 54.8516 0.470703C55.3008 0.509766 55.7305 0.539063 56.1406 0.558594ZM48.7871 11.4863C48.416 11.623 48.1133 11.8574 47.8789 12.1895C47.6641 12.5215 47.4883 12.9219 47.3516 13.3906C47.2148 13.8398 47.1172 14.3281 47.0586 14.8555C47.0195 15.3633 46.9902 15.8613 46.9707 16.3496C46.9707 16.8184 46.9707 17.248 46.9707 17.6387C46.9707 18.0293 46.9707 18.3223 46.9707 18.5176C46.9707 18.6348 46.9902 18.8496 47.0293 19.1621C47.0879 19.4551 47.2051 19.7676 47.3809 20.0996C47.5566 20.4121 47.8008 20.6953 48.1133 20.9492C48.4453 21.2031 48.8848 21.3301 49.4316 21.3301C49.8809 21.291 50.3594 21.1348 50.8672 20.8613C51.3164 20.627 51.8242 20.2559 52.3906 19.748C52.9766 19.2207 53.6016 18.4688 54.2656 17.4922C54.2266 16.8672 54.1973 16.3496 54.1777 15.9395C54.1777 15.5293 54.168 15.1973 54.1484 14.9434C54.1289 14.6504 54.1191 14.416 54.1191 14.2402V13.8008C54.1191 13.6836 54.1191 13.5566 54.1191 13.4199C54.1191 13.2832 54.1289 13.1562 54.1484 13.0391C53.6016 12.6484 53.1133 12.3164 52.6836 12.043C52.2734 11.75 51.8633 11.5352 51.4531 11.3984C51.0625 11.2422 50.6523 11.1738 50.2227 11.1934C49.8125 11.1934 49.334 11.291 48.7871 11.4863ZM78.0547 1.55469C77.7812 2.17969 77.5371 2.72656 77.3223 3.19531C77.1074 3.66406 76.9219 4.06445 76.7656 4.39648C76.5898 4.76758 76.4434 5.09961 76.3262 5.39258C76.2285 5.60742 76.1016 5.90039 75.9453 6.27148C75.7891 6.60352 75.5938 7.04297 75.3594 7.58984C75.1445 8.11719 74.8613 8.80078 74.5098 9.64062C74.334 8.91797 74.1191 8.2832 73.8652 7.73633C73.6113 7.18945 73.3379 6.71094 73.0449 6.30078C72.752 5.89062 72.4395 5.55859 72.1074 5.30469C71.7949 5.03125 71.4824 4.80664 71.1699 4.63086C70.4473 4.24023 69.6855 4.02539 68.8848 3.98633C67.8301 4.04492 67 4.2207 66.3945 4.51367C65.8086 4.78711 65.3789 5.10938 65.1055 5.48047C64.832 5.83203 64.6855 6.20312 64.666 6.59375C64.6465 6.96484 64.6953 7.27734 64.8125 7.53125C64.9102 7.76562 65.252 8.03906 65.8379 8.35156C66.4434 8.66406 67.166 9.02539 68.0059 9.43555C68.8652 9.82617 69.7832 10.2754 70.7598 10.7832C71.7363 11.2715 72.6348 11.8184 73.4551 12.4238C74.2949 13.0098 74.998 13.6543 75.5645 14.3574C76.1504 15.041 76.4727 15.7734 76.5312 16.5547C76.5898 17.5508 76.5801 18.4492 76.502 19.25C76.4238 20.0508 76.1504 20.7344 75.6816 21.3008C75.2129 21.8672 74.4805 22.3164 73.4844 22.6484C72.5078 22.9805 71.1504 23.1855 69.4121 23.2637C67.6152 23.3418 66.1406 23.2441 64.9883 22.9707C63.8359 22.6973 62.8984 22.3262 62.1758 21.8574C61.4727 21.3887 60.9453 20.8711 60.5938 20.3047C60.2617 19.7383 60.0176 19.2012 59.8613 18.6934C59.7051 18.166 59.5977 17.7168 59.5391 17.3457C59.4805 16.9551 59.3828 16.7207 59.2461 16.6426C59.0898 16.5449 58.9336 16.457 58.7773 16.3789C58.6406 16.3008 58.4941 16.2324 58.3379 16.1738C58.1816 16.0957 58.0254 16.0273 57.8691 15.9688L66.3945 14.5918C65.9062 14.9824 65.5254 15.3438 65.252 15.6758C64.998 16.0078 64.8027 16.3008 64.666 16.5547C64.5098 16.8477 64.4023 17.1211 64.3438 17.375C64.3047 17.6484 64.3926 17.9902 64.6074 18.4004C64.8223 18.8105 65.1152 19.2109 65.4863 19.6016C65.877 19.9727 66.3262 20.2852 66.834 20.5391C67.3418 20.793 67.8691 20.9004 68.416 20.8613C69.0996 20.8027 69.6562 20.6367 70.0859 20.3633C70.5156 20.0703 70.8379 19.709 71.0527 19.2793C71.2871 18.8496 71.4238 18.3809 71.4629 17.873C71.502 17.3652 71.4531 16.8672 71.3164 16.3789C71.1992 15.8711 71.0039 15.4023 70.7305 14.9727C70.457 14.5234 70.1348 14.1523 69.7637 13.8594C69.4316 13.625 68.9141 13.4004 68.2109 13.1855C67.5273 12.9707 66.7559 12.7363 65.8965 12.4824C65.0566 12.2285 64.1875 11.9355 63.2891 11.6035C62.4102 11.2715 61.6094 10.8613 60.8867 10.373C60.1836 9.88477 59.6172 9.30859 59.1875 8.64453C58.7773 7.98047 58.6211 7.17969 58.7188 6.24219C58.7969 5.44141 59.0508 4.77734 59.4805 4.25C59.9297 3.70313 60.4863 3.27344 61.1504 2.96094C61.834 2.62891 62.5859 2.38477 63.4062 2.22852C64.2461 2.07227 65.0957 1.98437 65.9551 1.96484C66.834 1.92578 67.6934 1.93555 68.5332 1.99414C69.3926 2.05273 70.1641 2.12109 70.8477 2.19922C71.5312 2.27734 72.1074 2.35547 72.5762 2.43359C73.0645 2.49219 73.3672 2.53125 73.4844 2.55078C73.9922 2.58984 74.5 2.58008 75.0078 2.52148C75.457 2.48242 75.9453 2.39453 76.4727 2.25781C77.0195 2.10156 77.5469 1.86719 78.0547 1.55469ZM77.1758 9.34766C77.8008 9.25 78.3086 9.17188 78.6992 9.11328C79.1094 9.03516 79.4414 8.97656 79.6953 8.9375C79.9883 8.87891 80.2129 8.83008 80.3691 8.79102C80.5254 8.75195 80.75 8.69336 81.043 8.61523C81.2969 8.53711 81.6289 8.44922 82.0391 8.35156C82.4492 8.23438 82.9668 8.07812 83.5918 7.88281C83.4355 8.07812 83.3086 8.25391 83.2109 8.41016C83.1328 8.54688 83.0547 8.66406 82.9766 8.76172C82.8984 8.87891 82.8301 8.98633 82.7715 9.08398C82.7129 9.18164 82.6543 9.32812 82.5957 9.52344C82.5566 9.67969 82.5078 9.9043 82.4492 10.1973C82.3906 10.4707 82.3418 10.832 82.3027 11.2812C83.3574 10.6172 84.3242 10.1191 85.2031 9.78711C86.1016 9.45508 86.8828 9.2207 87.5469 9.08398C88.3281 8.92773 89.0312 8.86914 89.6562 8.9082C90.4375 8.9668 91.1602 9.14258 91.8242 9.43555C92.5078 9.70898 93.123 10.041 93.6699 10.4316C94.2168 10.8223 94.6953 11.252 95.1055 11.7207C95.5156 12.1895 95.8379 12.6582 96.0723 13.127C96.2285 13.4395 96.3262 13.8887 96.3652 14.4746C96.4238 15.0605 96.3652 15.6855 96.1895 16.3496C96.0137 17.0137 95.7012 17.668 95.252 18.3125C94.8223 18.9375 94.207 19.4355 93.4062 19.8066C92.0195 20.4316 90.6426 20.7832 89.2754 20.8613C88.6895 20.9004 88.084 20.8809 87.459 20.8027C86.8535 20.7246 86.2383 20.5586 85.6133 20.3047C85.0078 20.0508 84.4219 19.6895 83.8555 19.2207C83.2891 18.7324 82.7715 18.1074 82.3027 17.3457C82.1465 18.3418 82.0293 19.2109 81.9512 19.9531C81.8926 20.6758 81.8535 21.2812 81.834 21.7695C81.8145 22.3359 81.8145 22.8145 81.834 23.2051C81.873 23.5957 81.9512 24.0156 82.0684 24.4648C82.166 24.8555 82.3027 25.3047 82.4785 25.8125C82.6738 26.3398 82.918 26.8867 83.2109 27.4531C83.0938 27.4141 82.9277 27.3848 82.7129 27.3652C82.5176 27.3652 82.3125 27.3848 82.0977 27.4238C81.8633 27.4629 81.5996 27.502 81.3066 27.541C81.0332 27.5996 80.7305 27.668 80.3984 27.7461C80.125 27.8047 79.8027 27.873 79.4316 27.9512C79.0801 28.0488 78.7188 28.1562 78.3477 28.2734C78.5625 28.0195 78.7285 27.7266 78.8457 27.3945C78.9824 27.082 79.0898 26.7891 79.168 26.5156C79.2461 26.1836 79.3145 25.8516 79.373 25.5195C79.3926 25.2266 79.4219 24.6699 79.4609 23.8496C79.5195 23.0488 79.5684 22.1211 79.6074 21.0664C79.6465 19.9922 79.6758 18.8691 79.6953 17.6973C79.7344 16.5254 79.7539 15.4414 79.7539 14.4453C79.7734 13.4297 79.7734 12.5703 79.7539 11.8672C79.7344 11.1641 79.6953 10.7539 79.6367 10.6367C79.5586 10.5 79.4121 10.3535 79.1973 10.1973C79.0215 10.0605 78.7676 9.92383 78.4355 9.78711C78.123 9.65039 77.7031 9.50391 77.1758 9.34766ZM84.1484 14.6797C84.0117 15.1289 83.9824 15.5684 84.0605 15.998C84.1387 16.4277 84.334 16.8281 84.6465 17.1992C84.9785 17.5703 85.4375 17.9023 86.0234 18.1953C86.6289 18.4688 87.3809 18.6738 88.2793 18.8105C89.1777 18.9473 89.8613 18.9277 90.3301 18.752C90.7988 18.5762 91.1406 18.3027 91.3555 17.9316C91.5898 17.541 91.7461 17.0918 91.8242 16.584C91.9023 16.0566 92 15.5098 92.1172 14.9434C92.2344 14.3965 92.2148 13.8398 92.0586 13.2734C91.9023 12.6875 91.6777 12.1602 91.3848 11.6914C91.1113 11.2227 90.7988 10.8418 90.4473 10.5488C90.1152 10.2363 89.8223 10.0801 89.5684 10.0801C88.9629 10.0801 88.3672 10.2363 87.7812 10.5488C87.1953 10.8613 86.6582 11.252 86.1699 11.7207C85.6816 12.1895 85.252 12.6973 84.8809 13.2441C84.5293 13.7715 84.2852 14.25 84.1484 14.6797ZM99.7637 11.1348C99.8613 11.0176 99.9199 10.8027 99.9395 10.4902C99.9785 10.1582 100.057 9.78711 100.174 9.37695C100.311 8.9668 100.535 8.53711 100.848 8.08789C101.16 7.63867 101.668 7.21875 102.371 6.82812C103.055 6.4375 103.719 6.20312 104.363 6.125C105.008 6.04688 105.623 6.07617 106.209 6.21289C106.795 6.34961 107.342 6.56445 107.85 6.85742C108.377 7.15039 108.855 7.47266 109.285 7.82422C109.578 8.05859 109.812 8.40039 109.988 8.84961C110.164 9.2793 110.301 9.76758 110.398 10.3145C110.496 10.8613 110.564 11.4375 110.604 12.043C110.662 12.6289 110.701 13.2051 110.721 13.7715C110.74 14.3184 110.75 14.8262 110.75 15.2949C110.77 15.7441 110.809 16.1152 110.867 16.4082C110.945 16.8379 111.082 17.209 111.277 17.5215C111.473 17.8145 111.688 18.0684 111.922 18.2832C112.156 18.4785 112.391 18.6348 112.625 18.752C112.859 18.8691 113.064 18.957 113.24 19.0156C113.357 19.0742 113.465 19.1133 113.562 19.1328C113.758 19.2109 113.895 19.2109 113.973 19.1328C113.855 19.4062 113.748 19.6406 113.65 19.8359C113.553 20.0312 113.475 20.1973 113.416 20.334C113.338 20.4902 113.27 20.6172 113.211 20.7148C113.152 20.832 113.084 20.9395 113.006 21.0371C112.947 21.1348 112.869 21.2422 112.771 21.3594C112.674 21.4766 112.576 21.6035 112.479 21.7402C112.225 21.6426 111.98 21.5254 111.746 21.3887C111.531 21.252 111.336 21.125 111.16 21.0078C110.945 20.8711 110.75 20.7344 110.574 20.5977C110.398 20.4609 110.232 20.3047 110.076 20.1289C109.939 19.9727 109.793 19.8066 109.637 19.6309C109.5 19.4551 109.383 19.2598 109.285 19.0449C109.168 19.2988 108.885 19.6602 108.436 20.1289C108.006 20.5977 107.439 21.0273 106.736 21.418C106.033 21.7891 105.213 22.0527 104.275 22.209C103.357 22.3652 102.342 22.2578 101.229 21.8867C100.74 21.7305 100.281 21.5059 99.8516 21.2129C99.4219 20.9004 99.0508 20.5293 98.7383 20.0996C98.4453 19.6699 98.2305 19.1816 98.0938 18.6348C97.9766 18.0684 97.9863 17.4434 98.123 16.7598C98.2598 16.0762 98.5039 15.5 98.8555 15.0312C99.207 14.5625 99.627 14.1816 100.115 13.8887C100.604 13.5957 101.15 13.3711 101.756 13.2148C102.361 13.0586 102.986 12.9512 103.631 12.8926C104.139 12.873 104.646 12.9023 105.154 12.9805C105.584 13.0586 106.033 13.2051 106.502 13.4199C106.971 13.6152 107.371 13.918 107.703 14.3281C107.684 13.293 107.645 12.4727 107.586 11.8672C107.547 11.2422 107.508 10.7637 107.469 10.4316C107.391 10.041 107.322 9.76758 107.264 9.61133C107.166 9.47461 107.059 9.31836 106.941 9.14258C106.844 8.9668 106.717 8.81055 106.561 8.67383C106.404 8.51758 106.209 8.39062 105.975 8.29297C105.74 8.19531 105.467 8.15625 105.154 8.17578C104.822 8.19531 104.559 8.2832 104.363 8.43945C104.168 8.5957 104.012 8.78125 103.895 8.99609C103.797 9.19141 103.738 9.40625 103.719 9.64062C103.699 9.875 103.709 10.0801 103.748 10.2559C103.787 10.373 103.846 10.5 103.924 10.6367C104.002 10.7539 104.109 10.8809 104.246 11.0176C104.383 11.1543 104.568 11.2715 104.803 11.3691C104.354 11.4277 103.953 11.4766 103.602 11.5156C103.25 11.5352 102.947 11.5645 102.693 11.6035C102.4 11.6426 102.146 11.6719 101.932 11.6914C101.717 11.7109 101.463 11.75 101.17 11.8086C100.916 11.8477 100.604 11.8965 100.232 11.9551C99.8613 12.0137 99.4316 12.0918 98.9434 12.1895C99.0605 12.0527 99.168 11.9258 99.2656 11.8086C99.3633 11.6719 99.4512 11.5547 99.5293 11.457C99.6074 11.3398 99.6855 11.2324 99.7637 11.1348ZM104.158 14.6211C103.807 14.6406 103.455 14.7285 103.104 14.8848C102.752 15.0215 102.439 15.2266 102.166 15.5C101.893 15.7539 101.658 16.0566 101.463 16.4082C101.287 16.7402 101.199 17.1113 101.199 17.5215C101.199 17.9316 101.297 18.293 101.492 18.6055C101.707 18.8984 101.98 19.1426 102.312 19.3379C102.664 19.5332 103.035 19.6504 103.426 19.6895C103.836 19.7285 104.236 19.6895 104.627 19.5723C104.998 19.4355 105.35 19.2207 105.682 18.9277C106.014 18.6152 106.297 18.2832 106.531 17.9316C106.766 17.5605 106.932 17.1992 107.029 16.8477C107.127 16.4766 107.137 16.1738 107.059 15.9395C106.902 15.4316 106.551 15.0801 106.004 14.8848C105.457 14.6699 104.842 14.582 104.158 14.6211Z" fill="black"/>
</svg>
