<svg width="42" height="43" viewBox="0 0 42 43" fill="none" xmlns="http://www.w3.org/2000/svg">
<path d="M26.2719 29.2934C26.2719 31.4959 25.7699 33.5289 24.7657 35.2232C22.59 39.2893 18.4058 42 13.5523 42C6.52301 42 1 36.2397 1 29.2934C1 22.3471 13.5523 1.16943 13.5523 1.16943C13.5523 1.16943 18.2385 8.96282 21.9205 16.7562C24.2636 21.6694 26.2719 26.5827 26.2719 29.2934Z" fill="#B8CAB2" stroke="#2C001B" stroke-width="1.5" stroke-miterlimit="10" stroke-linecap="round" stroke-linejoin="round"/>
<path d="M41 25.5661C41 31.6653 36.1465 36.5785 30.1214 36.5785C28.113 36.5785 26.272 36.0702 24.7657 35.2231C25.7699 33.5289 26.272 31.4959 26.272 29.2934C26.272 26.5826 24.2636 21.6694 21.9205 16.5868C25.1004 9.30165 30.1214 1 30.1214 1C30.1214 1 41 19.467 41 25.5661Z" stroke="#2C001B" stroke-width="1.5" stroke-miterlimit="10" stroke-linecap="round" stroke-linejoin="round"/>
<path d="M26.272 17.7728C27.1088 15.9091 27.6109 15.062 28.4477 13.5372" stroke="#2C001B" stroke-width="1.5" stroke-miterlimit="10" stroke-linecap="round" stroke-linejoin="round"/>
<path d="M8.02937 22.1776C9.03356 19.9752 9.53565 19.128 10.5398 17.2644" stroke="#2C001B" stroke-width="1.5" stroke-miterlimit="10" stroke-linecap="round" stroke-linejoin="round"/>
<path d="M13.5523 37.4257C9.20089 37.4257 5.68628 33.8679 5.68628 29.4629" stroke="#2C001B" stroke-width="1.5" stroke-miterlimit="10" stroke-linecap="round" stroke-linejoin="round"/>
</svg>
