<svg width="42" height="48" viewBox="0 0 42 48" fill="none" xmlns="http://www.w3.org/2000/svg">
<path d="M32.2977 41.0792L29.5496 40.3201L30.313 43.0528C27.5649 45.4818 24.3588 47 20.8473 47C17.4885 47 14.2824 45.4818 11.3817 43.0528L12.145 40.3201L9.39694 41.0792C4.35878 35.6139 1 27.1122 1 20.5841C1 16.637 2.22139 12.8416 4.3588 9.65346L9.24426 11.0198L7.87023 5.85808C11.3817 2.82178 15.9618 1 21 1C26.0382 1 30.6183 2.82178 34.1298 5.85808L32.7557 11.0198L37.6412 9.65346C39.7786 12.8416 41 16.4851 41 20.5841C40.6947 27.1122 37.4885 35.4621 32.2977 41.0792Z" stroke="black" stroke-width="1.5" stroke-miterlimit="10" stroke-linecap="round" stroke-linejoin="round"/>
<path d="M12.603 26.3531C15.3855 26.3531 17.6412 24.9937 17.6412 23.3168C17.6412 21.6399 15.3855 20.2805 12.603 20.2805C9.82051 20.2805 7.56482 21.6399 7.56482 23.3168C7.56482 24.9937 9.82051 26.3531 12.603 26.3531Z" stroke="black" stroke-width="1.5" stroke-miterlimit="10" stroke-linecap="round" stroke-linejoin="round"/>
<path d="M29.2442 26.3531C32.0267 26.3531 34.2823 24.9937 34.2823 23.3168C34.2823 21.6399 32.0267 20.2805 29.2442 20.2805C26.4617 20.2805 24.2061 21.6399 24.2061 23.3168C24.2061 24.9937 26.4617 26.3531 29.2442 26.3531Z" stroke="black" stroke-width="1.5" stroke-miterlimit="10" stroke-linecap="round" stroke-linejoin="round"/>
<path d="M20.8472 38.3466C23.3768 38.3466 25.4274 37.463 25.4274 36.373C25.4274 35.2831 23.3768 34.3994 20.8472 34.3994C18.3177 34.3994 16.2671 35.2831 16.2671 36.373C16.2671 37.463 18.3177 38.3466 20.8472 38.3466Z" stroke="black" stroke-width="1.5" stroke-miterlimit="10" stroke-linecap="round" stroke-linejoin="round"/>
</svg>
