<svg width="121" height="25" viewBox="0 0 121 25" fill="none" xmlns="http://www.w3.org/2000/svg">
<g clip-path="url(#clip0_1_215)">
<path d="M12.0089 18.1262L16.1597 20.6588C16.9199 21.1229 17.8501 20.4368 17.6501 19.5691L16.5498 14.8067L20.2206 11.5981C20.8907 11.0129 20.5307 9.903 19.6505 9.83237L14.8195 9.41869L12.9291 4.91862C12.589 4.10134 11.4287 4.10134 11.0887 4.91862L9.19828 9.4086L4.36726 9.82228C3.48707 9.89291 3.12699 11.0028 3.79713 11.588L7.46791 14.7966L6.36768 19.559C6.16764 20.4267 7.09783 21.1128 7.85799 20.6487L12.0089 18.1262Z" fill="#FFBB00"/>
<path d="M84.0241 18.1262L88.1749 20.6588C88.9351 21.1229 89.8653 20.4368 89.6653 19.5691L88.565 14.8067L92.2358 11.5981C92.9059 11.0129 92.5459 9.903 91.6657 9.83237L86.8347 9.41869L84.9443 4.91862C84.6042 4.10134 83.4439 4.10134 83.1039 4.91862L81.2135 9.4086L76.3825 9.82228C75.5023 9.89291 75.1422 11.0028 75.8123 11.588L79.4831 14.7966L78.3829 19.559C78.1828 20.4267 79.113 21.1128 79.8732 20.6487L84.0241 18.1262Z" fill="#FFBB00"/>
<path d="M60.019 18.1262L64.1699 20.6588C64.9301 21.1229 65.8603 20.4368 65.6602 19.5691L64.56 14.8067L68.2308 11.5981C68.9009 11.0129 68.5409 9.903 67.6607 9.83237L62.8296 9.41869L60.9392 4.91862C60.5992 4.10134 59.4389 4.10134 59.0989 4.91862L57.2085 9.4086L52.3774 9.82228C51.4972 9.89291 51.1372 11.0028 51.8073 11.588L55.4781 14.7966L54.3779 19.559C54.1778 20.4267 55.108 21.1128 55.8682 20.6487L60.019 18.1262Z" fill="#FFBB00"/>
<path d="M36.0139 18.1262L40.1648 20.6588C40.925 21.1229 41.8552 20.4368 41.6551 19.5691L40.5549 14.8067L44.2257 11.5981C44.8958 11.0129 44.5357 9.903 43.6555 9.83237L38.8245 9.41869L36.9341 4.91862C36.594 4.10134 35.4338 4.10134 35.0937 4.91862L33.2033 9.4086L28.3723 9.82228C27.4921 9.89291 27.132 11.0028 27.8022 11.588L31.473 14.7966L30.3727 19.559C30.1727 20.4267 31.1029 21.1128 31.863 20.6487L36.0139 18.1262Z" fill="#FFBB00"/>
<path d="M108.029 18.1262L112.18 20.6588C112.94 21.1229 113.87 20.4368 113.67 19.5691L112.57 14.8067L116.241 11.5981C116.911 11.0129 116.551 9.903 115.671 9.83237L110.84 9.41869L108.949 4.91862C108.609 4.10134 107.449 4.10134 107.109 4.91862L105.219 9.4086L100.388 9.82228C99.5074 9.89291 99.1473 11.0028 99.8175 11.588L103.488 14.7966L102.388 19.559C102.188 20.4267 103.118 21.1128 103.878 20.6487L108.029 18.1262Z" fill="#FFBB00"/>
</g>
<defs>
<clipPath id="clip0_1_215">
<rect width="120.025" height="24.2156" fill="white" transform="translate(0.00634766 0.449219)"/>
</clipPath>
</defs>
</svg>
