<svg width="52" height="37" viewBox="0 0 52 37" fill="none" xmlns="http://www.w3.org/2000/svg">
<path d="M1.92846 26.2691L18.298 4.92377C19.2786 3.71947 20.504 2.74519 21.8902 2.06787C23.2764 1.39055 24.7905 1.02625 26.3283 1H45.4776C46.4971 1.0069 47.4952 1.29862 48.3625 1.84324C49.2299 2.38786 49.9332 3.16441 50.3956 4.08796C50.8579 5.01151 51.0614 6.0465 50.9839 7.07971C50.9064 8.11292 50.5508 9.10456 49.956 9.94619L33.5865 32.861C32.8831 33.8147 31.9751 34.593 30.9316 35.1369C29.888 35.6808 28.7363 35.976 27.5638 36H7.33349C5.65425 36 4.04378 35.322 2.85637 34.1152C1.66896 32.9085 1.00188 31.2717 1.00188 29.565C0.981283 28.7069 1.12983 27.8532 1.43879 27.0542C1.74775 26.2553 2.21087 25.5273 2.80087 24.913C3.39088 24.2987 4.09585 23.8107 4.87428 23.4775C5.65271 23.1443 6.48886 22.9728 7.33349 22.9731H26.7916C27.9114 23.0138 28.972 23.4947 29.7498 24.3144C30.5276 25.1342 30.9619 26.2289 30.9612 27.3677C30.9619 28.5065 30.5276 29.6012 29.7498 30.421C28.972 31.2408 27.9114 31.7217 26.7916 31.7623H6.71578C6.43862 31.7632 6.1643 31.7057 5.91009 31.5935C5.65587 31.4813 5.42727 31.3168 5.23868 31.1103C5.05009 30.9039 4.9056 30.6601 4.8143 30.3941C4.723 30.1282 4.68687 29.8459 4.70819 29.565C4.70819 29.0239 4.9197 28.5049 5.2962 28.1223C5.67269 27.7396 6.18333 27.5247 6.71578 27.5247H26.7916" fill="url(#paint0_linear_1_52)"/>
<path d="M1.92846 26.2691L18.298 4.92377C19.2786 3.71947 20.504 2.74519 21.8902 2.06787C23.2764 1.39055 24.7905 1.02625 26.3283 1H45.4776C46.4971 1.0069 47.4952 1.29862 48.3625 1.84324C49.2299 2.38786 49.9332 3.16441 50.3956 4.08796C50.8579 5.01151 51.0614 6.0465 50.9839 7.07971C50.9064 8.11292 50.5508 9.10456 49.956 9.94619L33.5865 32.861C32.8831 33.8147 31.9751 34.593 30.9316 35.1369C29.888 35.6808 28.7363 35.976 27.5638 36H7.33349C5.65425 36 4.04378 35.322 2.85637 34.1152C1.66896 32.9085 1.00188 31.2717 1.00188 29.565C0.981283 28.7069 1.12983 27.8532 1.43879 27.0542C1.74775 26.2553 2.21087 25.5273 2.80087 24.913C3.39088 24.2987 4.09585 23.8107 4.87428 23.4775C5.65271 23.1443 6.48886 22.9728 7.33349 22.9731H26.7916C27.9114 23.0138 28.972 23.4947 29.7498 24.3144C30.5276 25.1342 30.9619 26.2289 30.9612 27.3677C30.9619 28.5065 30.5276 29.6012 29.7498 30.421C28.972 31.2408 27.9114 31.7217 26.7916 31.7623H6.71577C6.43862 31.7632 6.1643 31.7057 5.91009 31.5935C5.65587 31.4813 5.42727 31.3168 5.23868 31.1103C5.05009 30.9039 4.9056 30.6601 4.8143 30.3941C4.723 30.1282 4.68687 29.8459 4.70819 29.565C4.70819 29.0239 4.9197 28.5049 5.2962 28.1223C5.67269 27.7396 6.18333 27.5247 6.71577 27.5247H26.7916" stroke="#2C001B" stroke-width="1.5" stroke-miterlimit="10" stroke-linecap="round"/>
<defs>
<linearGradient id="paint0_linear_1_52" x1="14.8987" y1="37.8834" x2="37.0563" y2="-1.04831" gradientUnits="userSpaceOnUse">
<stop offset="0.0671681" stop-color="#B8CAB2"/>
<stop offset="0.383997" stop-color="#B8CAB2"/>
<stop offset="1" stop-color="#B8CAB2"/>
</linearGradient>
</defs>
</svg>
